<svg xmlns="http://www.w3.org/2000/svg" width="24" height="24" viewBox="0 0 24 24" fill="none">
  <path d="M19.3496 17.7455L19.4512 18.0179L19.7217 18.1244L21.6797 18.89L19.7549 19.5267L19.4512 19.6273L19.3457 19.9291L18.6455 21.9252L17.9473 19.9291L17.8418 19.6273L17.5381 19.5267L15.6123 18.89L17.5703 18.1254L17.8418 18.0199L17.9434 17.7465L18.6465 15.8549L19.3496 17.7455ZM9.89941 4.15857L11.5986 9.25818C11.6796 9.50144 11.8168 9.72239 11.998 9.90369C12.1793 10.085 12.4003 10.2221 12.6436 10.3031L17.7422 12.0023L12.6436 13.7025C12.4004 13.7835 12.1793 13.9197 11.998 14.101C11.8168 14.2822 11.6796 14.5032 11.5986 14.7465L9.89844 19.847L8.19922 14.7465C8.11823 14.5033 7.982 14.2822 7.80078 14.101C7.66476 13.9649 7.50639 13.8539 7.33301 13.7728L7.15527 13.7025L2.05469 12.0013L7.15527 10.3041C7.39852 10.2231 7.6195 10.0859 7.80078 9.90466C7.982 9.72339 8.11827 9.50235 8.19922 9.25916L9.89941 4.15857ZM19.1406 3.41541L19.2422 3.68787L19.5127 3.79431L19.9121 3.95056L19.5459 4.07166L19.2422 4.17224L19.1367 4.474L18.999 4.86365L18.8633 4.47498L18.7578 4.17322L18.4541 4.07263L18.0869 3.95056L18.4863 3.79529L18.7578 3.68884L18.8594 3.41638L19 3.03748L19.1406 3.41541ZM18.8154 1.97693C18.8136 1.97627 18.8114 1.97663 18.8096 1.97595L18.8086 1.97498L18.8223 1.93884L18.8154 1.97693Z" fill="white" stroke="#71717A" stroke-width="1.3"/>
</svg>