<svg xmlns="http://www.w3.org/2000/svg" width="22" height="22" viewBox="0 0 22 22" fill="none">
  <path d="M10.75 4.75C11.8546 4.75 12.75 3.85455 12.75 2.75C12.75 1.64543 11.8546 0.75 10.75 0.75C9.64545 0.75 8.75 1.64543 8.75 2.75C8.75 3.85455 9.64545 4.75 10.75 4.75Z" stroke="#71717A" stroke-width="1.5" stroke-linejoin="round"/>
  <path d="M10.75 20.75C11.8546 20.75 12.75 19.8546 12.75 18.75C12.75 17.6454 11.8546 16.75 10.75 16.75C9.64545 16.75 8.75 17.6454 8.75 18.75C8.75 19.8546 9.64545 20.75 10.75 20.75Z" stroke="#71717A" stroke-width="1.5" stroke-linejoin="round"/>
  <path d="M2.75 12.75C3.85455 12.75 4.75 11.8546 4.75 10.75C4.75 9.64545 3.85455 8.75 2.75 8.75C1.64543 8.75 0.75 9.64545 0.75 10.75C0.75 11.8546 1.64543 12.75 2.75 12.75Z" stroke="#71717A" stroke-width="1.5" stroke-linejoin="round"/>
  <path d="M18.75 12.75C19.8546 12.75 20.75 11.8546 20.75 10.75C20.75 9.64545 19.8546 8.75 18.75 8.75C17.6454 8.75 16.75 9.64545 16.75 10.75C16.75 11.8546 17.6454 12.75 18.75 12.75Z" stroke="#71717A" stroke-width="1.5" stroke-linejoin="round"/>
  <path d="M4.75 10.75H16.75" stroke="#71717A" stroke-width="1.5" stroke-linecap="round" stroke-linejoin="round"/>
  <path d="M10.75 4.75V16.75" stroke="#71717A" stroke-width="1.5" stroke-linecap="round" stroke-linejoin="round"/>
  <path d="M17.4029 6.30551C17.1109 5.86926 16.7771 5.46331 16.4072 5.09346C16.0373 4.72356 15.6313 4.38971 15.1951 4.09766M6.30551 4.09766C5.86926 4.38971 5.46331 4.72356 5.09346 5.09346C4.72356 5.46331 4.38971 5.86926 4.09766 6.30551L6.30551 4.09766ZM4.09766 15.1951C4.38971 15.6313 4.72356 16.0373 5.09346 16.4072C5.46331 16.7771 5.86926 17.1109 6.30551 17.4029L4.09766 15.1951ZM15.1951 17.4029C15.6313 17.1109 16.0373 16.7771 16.4072 16.4072C16.7771 16.0373 17.1109 15.6313 17.4029 15.1951L15.1951 17.4029Z" stroke="#71717A" stroke-width="1.5" stroke-linecap="round" stroke-linejoin="round"/>
</svg>