<svg xmlns="http://www.w3.org/2000/svg" width="13" height="12" viewBox="0 0 13 12" fill="none">
  <path d="M0.25 0.25H1.58333V1.48429H0.25V0.25Z" fill="#1166E3"/>
  <path d="M0.25 5.18714H1.58333V6.42143H0.25V5.18714Z" fill="#1166E3"/>
  <path d="M0.25 9.81571H1.58333V11.05H0.25V9.81571Z" fill="#1166E3"/>
  <path d="M2.91667 2.71857H4.25V3.95286H2.91667V2.71857Z" fill="#1166E3"/>
  <path d="M2.91667 7.65571H4.25V8.89H2.91667V7.65571Z" fill="#1166E3"/>
  <path d="M5.58333 0.25H6.91667V1.48429H5.58333V0.25Z" fill="#1166E3"/>
  <path d="M5.58333 5.18714H6.91667V6.42143H5.58333V5.18714Z" fill="#1166E3"/>
  <path d="M5.58333 9.81571H6.91667V11.05H5.58333V9.81571Z" fill="#1166E3"/>
  <path d="M8.25 2.71857H9.58333V3.95286H8.25V2.71857Z" fill="#1166E3"/>
  <path d="M8.25 7.65571H9.58333V8.89H8.25V7.65571Z" fill="#1166E3"/>
  <path d="M10.9167 0.25H12.25V1.48429H10.9167V0.25Z" fill="#1166E3"/>
  <path d="M10.9167 5.18714H12.25V6.42143H10.9167V5.18714Z" fill="#1166E3"/>
  <path d="M10.9167 9.81571H12.25V11.05H10.9167V9.81571Z" fill="#1166E3"/>
  <path d="M0.25 0.25H1.58333V1.48429H0.25V0.25Z" stroke="#1166E3" stroke-width="0.5"/>
  <path d="M0.25 5.18714H1.58333V6.42143H0.25V5.18714Z" stroke="#1166E3" stroke-width="0.5"/>
  <path d="M0.25 9.81571H1.58333V11.05H0.25V9.81571Z" stroke="#1166E3" stroke-width="0.5"/>
  <path d="M2.91667 2.71857H4.25V3.95286H2.91667V2.71857Z" stroke="#1166E3" stroke-width="0.5"/>
  <path d="M2.91667 7.65571H4.25V8.89H2.91667V7.65571Z" stroke="#1166E3" stroke-width="0.5"/>
  <path d="M5.58333 0.25H6.91667V1.48429H5.58333V0.25Z" stroke="#1166E3" stroke-width="0.5"/>
  <path d="M5.58333 5.18714H6.91667V6.42143H5.58333V5.18714Z" stroke="#1166E3" stroke-width="0.5"/>
  <path d="M5.58333 9.81571H6.91667V11.05H5.58333V9.81571Z" stroke="#1166E3" stroke-width="0.5"/>
  <path d="M8.25 2.71857H9.58333V3.95286H8.25V2.71857Z" stroke="#1166E3" stroke-width="0.5"/>
  <path d="M8.25 7.65571H9.58333V8.89H8.25V7.65571Z" stroke="#1166E3" stroke-width="0.5"/>
  <path d="M10.9167 0.25H12.25V1.48429H10.9167V0.25Z" stroke="#1166E3" stroke-width="0.5"/>
  <path d="M10.9167 5.18714H12.25V6.42143H10.9167V5.18714Z" stroke="#1166E3" stroke-width="0.5"/>
  <path d="M10.9167 9.81571H12.25V11.05H10.9167V9.81571Z" stroke="#1166E3" stroke-width="0.5"/>
</svg>