<svg xmlns="http://www.w3.org/2000/svg" width="16" height="12" viewBox="0 0 16 12" fill="none">
  <path d="M8.79999 0H1.6C0.716344 0 0 0.767512 0 1.71429V10.2857C0 11.2325 0.716344 12 1.6 12H8.79999C9.68365 12 10.4 11.2325 10.4 10.2857V1.71429C10.4 0.767512 9.68365 0 8.79999 0Z" fill="#09090B"/>
  <path d="M15.6 1.11429C15.4788 1.03827 15.3411 0.997779 15.2006 0.996876C15.0602 0.995974 14.922 1.03469 14.8 1.10914L12 2.81486V9.27171L14.772 11.1574C14.8933 11.2397 15.033 11.2855 15.1765 11.29C15.32 11.2946 15.462 11.2576 15.5875 11.1831C15.7131 11.1086 15.8177 10.9993 15.8903 10.8666C15.9628 10.7339 16.0007 10.5827 16 10.4289V1.85743C16.0001 1.70683 15.9632 1.55884 15.893 1.42838C15.8228 1.29792 15.7217 1.18959 15.6 1.11429Z" fill="#09090B"/>
</svg>