<svg xmlns="http://www.w3.org/2000/svg" width="15" height="15" viewBox="0 0 15 15" fill="none">
  <path d="M1.56439 9.83543V7.95893C1.56439 7.89422 1.52153 7.85109 1.45724 7.82952L0.15001 7.57069C0.0642901 7.54912 0 7.59226 0 7.67853V14.1924C0 14.2786 0.0857202 14.3433 0.17144 14.3218L1.47867 13.8472C1.52153 13.8257 1.56439 13.7825 1.56439 13.7178V11.5609C1.56439 11.4962 1.62868 11.4315 1.69297 11.4315H4.02885C4.07171 11.4315 4.11457 11.41 4.136 11.3884L5.40037 9.59817C5.44323 9.53346 5.4218 9.44719 5.35751 9.42562L3.81455 8.56286C3.75026 8.51972 3.66454 8.56286 3.64311 8.62757L3.23594 9.90014C3.21451 9.94327 3.17165 9.98641 3.10736 9.98641H1.73583C1.62868 9.98641 1.56439 9.9217 1.56439 9.83543ZM14.9367 7.74324L3.64311 0.0215689C3.62168 -2.00876e-08 3.60025 0 3.57882 0H2.35731C2.31445 0 2.27159 0.0215689 2.25016 0.0647067L0.492891 2.93337C0.471461 2.95494 0.471461 2.97651 0.471461 2.99808V3.90397C0.471461 3.94711 0.492891 3.99025 0.535751 4.01182L10.5222 10.3531C10.5436 10.3747 10.565 10.3747 10.5864 10.3747H11.3579C11.3794 10.3747 11.4008 10.3747 11.4222 10.3531L14.9367 7.95893C15.0225 7.89422 15.0225 7.78638 14.9367 7.74324ZM1.30723 5.09027L0.578611 5.93145C0.535751 5.99616 0.535751 6.08244 0.600041 6.12557L10.4579 12.5315C10.4793 12.5531 10.5007 12.5531 10.5222 12.5531H11.3579C11.4008 12.5531 11.4222 12.5315 11.4436 12.51L11.8722 12.057C11.8937 12.0355 11.8937 12.0355 11.8937 12.0139L12.2794 10.7845C12.3008 10.7198 12.2151 10.655 12.1508 10.6982C11.8508 10.9354 11.2508 11.3884 11.0579 11.5394C11.015 11.5609 10.9508 11.5609 10.9079 11.5394C10.6293 11.3453 10.3293 11.1727 10.0293 11.0217H10.0078L1.47867 5.0687C1.41438 5.04713 1.35009 5.04713 1.30723 5.09027Z" fill="#09090B"/>
</svg>