<svg xmlns="http://www.w3.org/2000/svg" width="36" height="36" viewBox="0 0 36 36" fill="none">
  <circle cx="17.5814" cy="17.5814" r="17.0814" stroke="#1166E3"/>
  <path d="M12.8983 20.5611V18.4676C12.8983 18.3954 12.8515 18.3473 12.7812 18.3232L11.3516 18.0344C11.2578 18.0104 11.1875 18.0585 11.1875 18.1548V25.4221C11.1875 25.5183 11.2812 25.5905 11.375 25.5664L12.8046 25.037C12.8515 25.013 12.8983 24.9648 12.8983 24.8926V22.4863C12.8983 22.4141 12.9686 22.3419 13.039 22.3419H15.5935C15.6404 22.3419 15.6872 22.3178 15.7107 22.2937L17.0934 20.2964C17.1403 20.2243 17.1168 20.128 17.0465 20.1039L15.3591 19.1414C15.2888 19.0933 15.1951 19.1414 15.1716 19.2136L14.7264 20.6333C14.7029 20.6815 14.656 20.7296 14.5857 20.7296H13.0858C12.9686 20.7296 12.8983 20.6574 12.8983 20.5611ZM27.5225 18.2269L15.1716 9.61208C15.1482 9.58801 15.1248 9.58801 15.1013 9.58801H13.7655C13.7186 9.58801 13.6717 9.61208 13.6483 9.6602L11.7265 12.8607C11.7031 12.8848 11.7031 12.9088 11.7031 12.9329V13.9436C11.7031 13.9917 11.7265 14.0398 11.7734 14.0639L22.6946 21.1387C22.7181 21.1627 22.7415 21.1627 22.7649 21.1627H23.6087C23.6321 21.1627 23.6555 21.1627 23.679 21.1387L27.5225 18.4676C27.6162 18.3954 27.6162 18.2751 27.5225 18.2269ZM12.6171 15.2671L11.8203 16.2056C11.7734 16.2778 11.7734 16.374 11.8437 16.4222L22.6243 23.5691C22.6478 23.5932 22.6712 23.5932 22.6946 23.5932H23.6087C23.6555 23.5932 23.679 23.5691 23.7024 23.5451L24.1711 23.0397C24.1946 23.0157 24.1946 23.0157 24.1946 22.9916L24.6164 21.62C24.6398 21.5478 24.5461 21.4756 24.4758 21.5237C24.1477 21.7884 23.4915 22.2937 23.2805 22.4622C23.2337 22.4863 23.1634 22.4863 23.1165 22.4622C22.8118 22.2456 22.4837 22.0531 22.1556 21.8847H22.1322L12.8046 15.243C12.7343 15.219 12.664 15.219 12.6171 15.2671Z" fill="#1166E3"/>
</svg>