<svg xmlns="http://www.w3.org/2000/svg" width="7" height="13" viewBox="0 0 7 13" fill="none">
  <path d="M1.17863 12.6C0.948386 12.5999 0.723325 12.5261 0.531899 12.3878C0.340472 12.2495 0.191275 12.053 0.103171 11.8231C0.0150666 11.5932 -0.0079897 11.3402 0.0369154 11.0961C0.0818205 10.852 0.192672 10.6278 0.355455 10.4518L4.18957 6.30773L0.355455 2.16364C0.24425 2.04756 0.155549 1.90869 0.0945278 1.75516C0.0335067 1.60162 0.00138738 1.43649 4.39599e-05 1.26939C-0.00129946 1.10229 0.0281608 0.93658 0.086704 0.78192C0.145247 0.627261 0.231702 0.486752 0.341023 0.368592C0.450345 0.250433 0.580343 0.156989 0.723434 0.0937124C0.866526 0.0304362 1.01984 -0.00140451 1.17444 4.75155e-05C1.32904 0.00149954 1.48182 0.0362156 1.62387 0.10217C1.76593 0.168124 1.8944 0.263996 2.00181 0.384191L6.6591 5.41801C6.87738 5.654 7 5.97404 7 6.30773C7 6.64143 6.87738 6.96146 6.6591 7.19746L2.00181 12.2313C1.78351 12.4673 1.4874 12.5999 1.17863 12.6Z" fill="#3F83F8"/>
</svg>