<svg xmlns="http://www.w3.org/2000/svg" width="23" height="23" viewBox="0 0 23 23" fill="none">
  <g filter="url(#filter0_d_19040_36164)">
    <path d="M16.6987 18.4025H13.5454C13.41 18.3994 13.2811 18.3439 13.1852 18.2475C13.0894 18.1511 13.0341 18.0211 13.0307 17.8846C13.0307 17.6086 13.2705 17.3673 13.5448 17.3673H16.6998C16.9735 17.3673 17.2139 17.1255 17.2139 16.8495V14.1929C17.2139 13.9169 17.4537 13.675 17.7285 13.675C18.0022 13.675 18.2426 13.9169 18.2426 14.1929V16.8495C18.2765 17.6776 17.5566 18.4025 16.6987 18.4025ZM8.77977 18.4025H6.13876C5.93171 18.4033 5.72656 18.3628 5.53508 18.2833C5.3436 18.2039 5.16957 18.0871 5.023 17.9396C4.87643 17.7921 4.76021 17.6168 4.68101 17.4239C4.60182 17.2309 4.56121 17.0241 4.56153 16.8153V14.1581C4.56153 13.8821 4.80189 13.6408 5.07616 13.6408C5.34984 13.6408 5.59021 13.8821 5.59021 14.1581V16.8153C5.59021 17.0913 5.83057 17.3325 6.10484 17.3325H8.74527C9.01895 17.3325 9.25871 17.5744 9.25871 17.8504C9.29322 18.1606 9.05405 18.3677 8.77977 18.4025ZM5.07616 9.39644C4.94093 9.3934 4.81203 9.33798 4.71622 9.24168C4.6204 9.14537 4.56501 9.01556 4.56153 8.87917V6.1878C4.56153 5.32488 5.28142 4.60059 6.13876 4.60059H8.77977C9.05345 4.60059 9.29382 4.84182 9.29382 5.11786C9.29382 5.39389 9.05405 5.63573 8.77977 5.63573H6.13876C6.00373 5.63907 5.87514 5.69462 5.77957 5.7909C5.68401 5.88717 5.62878 6.01681 5.62531 6.153V8.81016C5.62531 9.1204 5.38495 9.36224 5.07616 9.39644ZM17.7285 9.39644C17.5933 9.3934 17.4644 9.33798 17.3686 9.24168C17.2728 9.14537 17.2174 9.01556 17.2139 8.87917V6.1878C17.2106 6.05131 17.1552 5.92135 17.0594 5.82491C16.9636 5.72848 16.8346 5.67298 16.6993 5.66993H13.5448C13.4097 5.66674 13.2809 5.61126 13.1852 5.51496C13.0895 5.41867 13.0342 5.28895 13.0307 5.15266C13.0307 4.87662 13.236 4.60059 13.5109 4.60059H16.6653C17.5566 4.60059 18.242 5.29068 18.242 6.1878V8.84436C18.2765 9.1204 18.0373 9.36224 17.7285 9.39644ZM7.41197 8.24008H8.60307V7.658H7.41197V8.24008Z" fill="white"/>
    <path d="M15.8684 8.59257C16.192 8.59257 16.4776 8.8716 16.4586 9.22685V14.1685C16.4586 14.5238 16.192 14.8028 15.8493 14.8028H7.54967C7.20757 14.8028 6.94043 14.5238 6.94043 14.1685V9.22685C6.94043 8.8716 7.20697 8.59257 7.55026 8.59257H9.43925C9.59097 8.48095 9.76291 8.29433 9.93485 7.99548C10.149 7.63784 10.337 7.60183 10.4043 7.60183C10.4131 7.60165 10.4218 7.60246 10.4305 7.60423H12.6241C12.6241 7.60423 13.3106 7.60423 13.501 7.99548C13.6736 8.31293 13.8253 8.49955 13.9782 8.59257H15.8684ZM11.709 10.1906C11.2093 10.1906 10.7488 10.451 10.4989 10.8747C10.3765 11.0813 10.3119 11.3175 10.3119 11.5582C10.3119 11.7989 10.3765 12.035 10.4989 12.2417C10.6247 12.4515 10.8023 12.6249 11.0144 12.7448C11.2265 12.8647 11.4659 12.9271 11.709 12.9258C12.4795 12.9228 13.1036 12.3125 13.1084 11.5576C13.1084 11.1951 12.9602 10.8471 12.6978 10.5908C12.4322 10.3332 12.0776 10.1893 11.709 10.1906ZM14.8659 10.8627C15.0783 10.8627 15.2746 10.7523 15.3811 10.5722C15.4882 10.3922 15.4882 10.1702 15.3823 9.99016C15.3289 9.90072 15.2534 9.82678 15.1632 9.77555C15.073 9.72433 14.9712 9.69758 14.8676 9.69792C14.5392 9.69732 14.2727 9.95775 14.2721 10.2794C14.2715 10.601 14.5374 10.8621 14.8659 10.8627Z" fill="white"/>
  </g>
  <defs>
    <filter id="filter0_d_19040_36164" x="-7.23848" y="-3.19941" width="37.2836" height="37.4019" filterUnits="userSpaceOnUse" color-interpolation-filters="sRGB">
      <feFlood flood-opacity="0" result="BackgroundImageFix"/>
      <feColorMatrix in="SourceAlpha" type="matrix" values="0 0 0 0 0 0 0 0 0 0 0 0 0 0 0 0 0 0 127 0" result="hardAlpha"/>
      <feOffset dy="4"/>
      <feGaussianBlur stdDeviation="5.9"/>
      <feComposite in2="hardAlpha" operator="out"/>
      <feColorMatrix type="matrix" values="0 0 0 0 0 0 0 0 0 0 0 0 0 0 0 0 0 0 0.6 0"/>
      <feBlend mode="normal" in2="BackgroundImageFix" result="effect1_dropShadow_19040_36164"/>
      <feBlend mode="normal" in="SourceGraphic" in2="effect1_dropShadow_19040_36164" result="shape"/>
    </filter>
  </defs>
</svg>