<svg xmlns="http://www.w3.org/2000/svg" width="24" height="23" viewBox="0 0 24 23" fill="none">
  <g filter="url(#filter0_d_19040_36228)">
    <path d="M6.90153 8.69003H5.47363C5.28429 8.69001 5.10272 8.61594 4.96884 8.48413C4.83497 8.35232 4.75977 8.17355 4.75977 7.98716C4.75977 7.80076 4.83497 7.62199 4.96884 7.49018C5.10272 7.35837 5.28429 7.28431 5.47363 7.28428H6.90153V8.69003ZM19.0388 7.98716C19.0388 7.89485 19.0203 7.80345 18.9844 7.71818C18.9485 7.6329 18.8959 7.55542 18.8296 7.49015C18.7633 7.42488 18.6846 7.37311 18.598 7.33778C18.5114 7.30246 18.4186 7.28428 18.3248 7.28428H12.6132V8.69003H18.3248C18.5142 8.69003 18.6958 8.61598 18.8296 8.48416C18.9635 8.35235 19.0388 8.17357 19.0388 7.98716ZM10.4713 5.17566H9.0434C8.85404 5.17566 8.67245 5.24971 8.53855 5.38153C8.40466 5.51334 8.32944 5.69212 8.32944 5.87853V10.0958C8.32944 10.2822 8.40466 10.461 8.53855 10.5928C8.67245 10.7246 8.85404 10.7987 9.0434 10.7987H10.4713C10.6607 10.7987 10.8423 10.7246 10.9761 10.5928C11.11 10.461 11.1853 10.2822 11.1853 10.0958V5.87853C11.1853 5.69212 11.11 5.51334 10.9761 5.38153C10.8423 5.24971 10.6607 5.17566 10.4713 5.17566ZM14.755 12.2044H13.3271C13.1378 12.2044 12.9562 12.2785 12.8223 12.4103C12.6884 12.5421 12.6132 12.7209 12.6132 12.9073V17.1245C12.6132 17.3109 12.6884 17.4897 12.8223 17.6215C12.9562 17.7533 13.1378 17.8274 13.3271 17.8274H14.755C14.9444 17.8274 15.126 17.7533 15.2599 17.6215C15.3938 17.4897 15.469 17.3109 15.469 17.1245V12.9073C15.469 12.7209 15.3938 12.5421 15.2599 12.4103C15.126 12.2785 14.9444 12.2044 14.755 12.2044ZM19.0388 15.0159C19.0388 14.8295 18.9635 14.6507 18.8296 14.5189C18.6958 14.3871 18.5142 14.313 18.3248 14.313H16.8969V15.7188H18.3248C18.5142 15.7188 18.6958 15.6447 18.8296 15.5129C18.9635 15.3811 19.0388 15.2023 19.0388 15.0159ZM11.1853 14.313H5.47363C5.28429 14.313 5.10272 14.3871 4.96884 14.5189C4.83497 14.6507 4.75977 14.8295 4.75977 15.0159C4.75977 15.2023 4.83497 15.3811 4.96884 15.5129C5.10272 15.6447 5.28429 15.7187 5.47363 15.7188H11.1853V14.313Z" fill="white"/>
  </g>
  <defs>
    <filter id="filter0_d_19040_36228" x="-7.04023" y="-2.62434" width="37.8793" height="36.2517" filterUnits="userSpaceOnUse" color-interpolation-filters="sRGB">
      <feFlood flood-opacity="0" result="BackgroundImageFix"/>
      <feColorMatrix in="SourceAlpha" type="matrix" values="0 0 0 0 0 0 0 0 0 0 0 0 0 0 0 0 0 0 127 0" result="hardAlpha"/>
      <feOffset dy="4"/>
      <feGaussianBlur stdDeviation="5.9"/>
      <feComposite in2="hardAlpha" operator="out"/>
      <feColorMatrix type="matrix" values="0 0 0 0 0 0 0 0 0 0 0 0 0 0 0 0 0 0 0.6 0"/>
      <feBlend mode="normal" in2="BackgroundImageFix" result="effect1_dropShadow_19040_36228"/>
      <feBlend mode="normal" in="SourceGraphic" in2="effect1_dropShadow_19040_36228" result="shape"/>
    </filter>
  </defs>
</svg>