<svg xmlns="http://www.w3.org/2000/svg" width="24" height="23" viewBox="0 0 24 23" fill="none">
  <g filter="url(#filter0_d_19040_36136)">
    <path d="M17.406 18.4025H14.1157C13.9745 18.3994 13.8399 18.3439 13.7399 18.2475C13.6399 18.1511 13.5821 18.0211 13.5787 17.8846C13.5787 17.6086 13.8289 17.3673 14.1151 17.3673H17.4073C17.6929 17.3673 17.9437 17.1255 17.9437 16.8495V14.1929C17.9437 13.9169 18.1939 13.675 18.4807 13.675C18.7663 13.675 19.0171 13.9169 19.0171 14.1929V16.8495C19.0525 17.6776 18.3013 18.4025 17.406 18.4025ZM9.14286 18.4025H6.38702C6.17097 18.4033 5.9569 18.3628 5.75709 18.2833C5.55729 18.2039 5.37569 18.0871 5.22275 17.9396C5.06981 17.7921 4.94854 17.6168 4.8659 17.4239C4.78326 17.2309 4.74088 17.0241 4.74121 16.8153V14.1581C4.74121 13.8821 4.99203 13.6408 5.27823 13.6408C5.56381 13.6408 5.81462 13.8821 5.81462 14.1581V16.8153C5.81462 17.0913 6.06543 17.3325 6.35163 17.3325H9.10686C9.39243 17.3325 9.64263 17.5744 9.64263 17.8504C9.67863 18.1606 9.42906 18.3677 9.14286 18.4025ZM5.27823 9.39644C5.13711 9.3934 5.00261 9.33798 4.90263 9.24168C4.80265 9.14537 4.74485 9.01556 4.74121 8.87917V6.1878C4.74121 5.32488 5.49241 4.60059 6.38702 4.60059H9.14286C9.42844 4.60059 9.67926 4.84182 9.67926 5.11786C9.67926 5.39389 9.42906 5.63573 9.14286 5.63573H6.38702C6.24612 5.63907 6.11194 5.69462 6.01222 5.7909C5.9125 5.88717 5.85487 6.01681 5.85125 6.153V8.81016C5.85125 9.1204 5.60043 9.36224 5.27823 9.39644ZM18.4807 9.39644C18.3396 9.3934 18.2051 9.33798 18.1051 9.24168C18.0051 9.14537 17.9473 9.01556 17.9437 8.87917V6.1878C17.9402 6.05131 17.8825 5.92135 17.7825 5.82491C17.6825 5.72848 17.5479 5.67298 17.4067 5.66993H14.1151C13.974 5.66674 13.8397 5.61126 13.7399 5.51496C13.64 5.41867 13.5823 5.28895 13.5787 5.15266C13.5787 4.87662 13.7928 4.60059 14.0797 4.60059H17.3713C18.3013 4.60059 19.0165 5.29068 19.0165 6.1878V8.84436C19.0525 9.1204 18.8029 9.36224 18.4807 9.39644Z" fill="white"/>
    <rect x="7.13965" y="6.90088" width="9.51933" height="9.20126" rx="2" fill="white"/>
    <path d="M12.8791 12.9543C12.7924 12.9543 12.7156 13.0102 12.6888 13.0926L12.5037 13.6637C12.4769 13.7461 12.4001 13.802 12.3134 13.802H11.8422C11.7031 13.802 11.6065 13.6636 11.6545 13.533L13.1109 9.56817C13.1399 9.48945 13.2148 9.43713 13.2987 9.43713H13.7199C13.8037 9.43713 13.8786 9.48933 13.9076 9.56792L15.37 13.5328C15.4182 13.6634 15.3215 13.802 15.1824 13.802H14.705C14.6183 13.802 14.5415 13.7461 14.5148 13.6637L14.3296 13.0926C14.3028 13.0102 14.226 12.9543 14.1393 12.9543H12.8791ZM13.6971 11.1714C13.6368 10.9875 13.3765 10.988 13.3168 11.1721L13.0475 12.0031C13.0057 12.1323 13.102 12.2648 13.2378 12.2648H13.7796C13.9157 12.2648 14.0121 12.1318 13.9697 12.0025L13.6971 11.1714Z" fill="#141414"/>
    <path d="M9.10255 9.43713C9.19121 9.43713 9.26929 9.49551 9.29437 9.58055L9.9503 11.8042C10.0067 11.9955 10.2776 11.9955 10.334 11.8042L10.9899 9.58055C11.015 9.49551 11.093 9.43713 11.1817 9.43713H11.6518C11.7882 9.43713 11.8846 9.5706 11.8417 9.70004L10.5279 13.6649C10.5008 13.7467 10.4242 13.802 10.338 13.802H9.93989C9.85358 13.802 9.777 13.7466 9.74996 13.6646L8.44211 9.69979C8.39943 9.57039 8.49579 9.43713 8.63204 9.43713H9.10255Z" fill="#141414"/>
  </g>
  <defs>
    <filter id="filter0_d_19040_36136" x="-7.05879" y="-3.19941" width="37.8783" height="37.4019" filterUnits="userSpaceOnUse" color-interpolation-filters="sRGB">
      <feFlood flood-opacity="0" result="BackgroundImageFix"/>
      <feColorMatrix in="SourceAlpha" type="matrix" values="0 0 0 0 0 0 0 0 0 0 0 0 0 0 0 0 0 0 127 0" result="hardAlpha"/>
      <feOffset dy="4"/>
      <feGaussianBlur stdDeviation="5.9"/>
      <feComposite in2="hardAlpha" operator="out"/>
      <feColorMatrix type="matrix" values="0 0 0 0 0 0 0 0 0 0 0 0 0 0 0 0 0 0 0.6 0"/>
      <feBlend mode="normal" in2="BackgroundImageFix" result="effect1_dropShadow_19040_36136"/>
      <feBlend mode="normal" in="SourceGraphic" in2="effect1_dropShadow_19040_36136" result="shape"/>
    </filter>
  </defs>
</svg>