<svg xmlns="http://www.w3.org/2000/svg" width="20" height="20" viewBox="0 0 20 20" fill="none">
  <g clip-path="url(#clip0_15133_234083)">
    <g filter="url(#filter0_d_15133_234083)">
      <path d="M7.34882 4.16797L4.58191 4.16797C4.35265 4.16797 4.16687 4.35377 4.16687 4.58306L4.16687 7.34839C4.16687 7.57867 4.35265 7.76448 4.58191 7.76448C4.81116 7.76448 4.99892 7.57867 4.99892 7.34839C4.99892 7.32467 4.99497 7.29997 4.99101 7.27723L4.99101 5.06537C4.99101 5.02682 5.02165 4.99618 5.0592 4.99618L7.30435 4.99618C7.31917 4.99717 7.33399 5.00014 7.34882 5.00014C7.57808 5.00014 7.76484 4.81433 7.76484 4.58405C7.76484 4.35377 7.57808 4.16797 7.34882 4.16797Z" fill="white"/>
      <path d="M12.655 4.16699L15.4219 4.16699C15.6511 4.16699 15.8369 4.3528 15.8369 4.58209L15.8369 7.34742C15.8369 7.5777 15.6511 7.7635 15.4219 7.7635C15.1926 7.7635 15.0049 7.5777 15.0049 7.34742C15.0049 7.3237 15.0088 7.29899 15.0128 7.27626L15.0128 5.06439C15.0128 5.02585 14.9821 4.99521 14.9446 4.99521L12.6994 4.99521C12.6846 4.9962 12.6698 4.99916 12.655 4.99916C12.4257 4.99916 12.2389 4.81336 12.2389 4.58308C12.2389 4.3528 12.4257 4.16699 12.655 4.16699Z" fill="white"/>
      <path d="M7.35114 15.834L4.58423 15.834C4.35497 15.834 4.16919 15.6482 4.16919 15.4189L4.16919 12.6536C4.16919 12.4233 4.35497 12.2375 4.58423 12.2375C4.81348 12.2375 5.00124 12.4233 5.00124 12.6536C5.00124 12.6773 4.99729 12.702 4.99333 12.7247L4.99333 14.9366C4.99333 14.9751 5.02397 15.0058 5.06152 15.0058L7.30667 15.0058C7.32149 15.0048 7.33631 15.0018 7.35114 15.0018C7.58039 15.0018 7.76716 15.1876 7.76716 15.4179C7.76716 15.6482 7.58039 15.834 7.35114 15.834Z" fill="white"/>
      <path d="M12.655 15.834L15.4219 15.834C15.6511 15.834 15.8369 15.6482 15.8369 15.4189L15.8369 12.6536C15.8369 12.4233 15.6511 12.2375 15.4219 12.2375C15.1926 12.2375 15.0049 12.4233 15.0049 12.6536C15.0049 12.6773 15.0088 12.702 15.0128 12.7247L15.0128 14.9366C15.0128 14.9751 14.9821 15.0058 14.9446 15.0058L12.6994 15.0058C12.6846 15.0048 12.6698 15.0018 12.655 15.0018C12.4257 15.0018 12.2389 15.1876 12.2389 15.4179C12.2389 15.6482 12.4257 15.834 12.655 15.834Z" fill="white"/>
    </g>
  </g>
  <defs>
    <filter id="filter0_d_15133_234083" x="-7.63313" y="-3.63301" width="35.27" height="35.267" filterUnits="userSpaceOnUse" color-interpolation-filters="sRGB">
      <feFlood flood-opacity="0" result="BackgroundImageFix"/>
      <feColorMatrix in="SourceAlpha" type="matrix" values="0 0 0 0 0 0 0 0 0 0 0 0 0 0 0 0 0 0 127 0" result="hardAlpha"/>
      <feOffset dy="4"/>
      <feGaussianBlur stdDeviation="5.9"/>
      <feComposite in2="hardAlpha" operator="out"/>
      <feColorMatrix type="matrix" values="0 0 0 0 0 0 0 0 0 0 0 0 0 0 0 0 0 0 0.6 0"/>
      <feBlend mode="normal" in2="BackgroundImageFix" result="effect1_dropShadow_15133_234083"/>
      <feBlend mode="normal" in="SourceGraphic" in2="effect1_dropShadow_15133_234083" result="shape"/>
    </filter>
    <clipPath id="clip0_15133_234083">
      <rect width="20" height="20" fill="white"/>
    </clipPath>
  </defs>
</svg>