<svg xmlns="http://www.w3.org/2000/svg" width="23" height="23" viewBox="0 0 23 23" fill="none">
  <g filter="url(#filter0_d_19040_41029)">
    <path d="M14.6169 12.9105L14.3012 14.4115C15.124 14.5646 15.9131 14.8629 16.6319 15.2924C17.0309 15.5532 17.2751 15.8355 17.2751 16.0472C17.2751 16.695 15.1065 17.9854 11.1182 17.9854C7.12873 17.9854 4.96014 16.7089 4.96014 16.0472C4.96014 15.6238 5.9191 14.8348 8.05995 14.3901L7.74528 12.8678C4.99534 13.4387 3.4209 14.5879 3.4209 16.0472C3.4209 17.1397 4.30946 18.0484 5.93936 18.6974C7.60128 19.2917 9.35492 19.5804 11.1182 19.5494C12.8817 19.587 14.637 19.2982 16.2959 18.6974C17.9258 18.0559 18.8154 17.1109 18.8154 16.0461C18.8154 14.6296 17.2826 13.4803 14.6169 12.9105Z" fill="white"/>
    <path d="M9.06798 11.9088L9.18638 16.4342C9.28665 16.9259 9.7304 17.2691 10.2285 17.2381H12.0483C12.2916 17.2548 12.5326 17.1825 12.7268 17.0347C12.921 16.8868 13.0551 16.6735 13.1044 16.4342L13.2174 11.9163H13.77C13.8374 11.92 13.9049 11.9097 13.9682 11.886C14.0315 11.8624 14.0893 11.8259 14.1378 11.7788C14.1864 11.7317 14.2248 11.6751 14.2505 11.6125C14.2762 11.5499 14.2887 11.4826 14.2873 11.4149L14.1337 8.27831C14.0826 8.04108 13.9474 7.83044 13.7533 7.68539C13.5591 7.54034 13.3191 7.47069 13.0777 7.48934H9.15225C8.91349 7.47205 8.67652 7.54168 8.48487 7.68544C8.29322 7.8292 8.15977 8.03743 8.10902 8.27189L7.95435 11.3935C7.94533 11.4594 7.95214 11.5264 7.97422 11.5891C7.9963 11.6518 8.03301 11.7083 8.08129 11.7538C8.19116 11.8564 8.33729 11.912 8.48663 11.9088H9.06798ZM11.1118 7.36961C11.6278 7.36734 12.1219 7.16016 12.4858 6.79345C12.8497 6.42674 13.0537 5.93042 13.0532 5.41323C13.0554 4.89604 12.853 4.39903 12.4903 4.03112C12.1276 3.66321 11.6342 3.4544 11.1182 3.45044C10.6107 3.46653 10.1294 3.67968 9.77594 4.04486C9.42243 4.41004 9.22442 4.89864 9.22372 5.40744C9.22303 5.91624 9.41972 6.40538 9.77223 6.77152C10.1247 7.13766 10.6055 7.35213 11.1128 7.36961H11.1118Z" fill="white"/>
  </g>
  <defs>
    <filter id="filter0_d_19040_41029" x="-8.3791" y="-4.34956" width="38.9945" height="39.7022" filterUnits="userSpaceOnUse" color-interpolation-filters="sRGB">
      <feFlood flood-opacity="0" result="BackgroundImageFix"/>
      <feColorMatrix in="SourceAlpha" type="matrix" values="0 0 0 0 0 0 0 0 0 0 0 0 0 0 0 0 0 0 127 0" result="hardAlpha"/>
      <feOffset dy="4"/>
      <feGaussianBlur stdDeviation="5.9"/>
      <feComposite in2="hardAlpha" operator="out"/>
      <feColorMatrix type="matrix" values="0 0 0 0 0 0 0 0 0 0 0 0 0 0 0 0 0 0 0.6 0"/>
      <feBlend mode="normal" in2="BackgroundImageFix" result="effect1_dropShadow_19040_41029"/>
      <feBlend mode="normal" in="SourceGraphic" in2="effect1_dropShadow_19040_41029" result="shape"/>
    </filter>
  </defs>
</svg>