<svg xmlns="http://www.w3.org/2000/svg" width="24" height="24" viewBox="0 0 24 24" fill="none">
  <path d="M12 0C5.4375 0 0 5.4375 0 12C0 18.5625 5.4375 24 12 24C18.5625 24 24 18.5625 24 12C24 5.4375 18.5625 0 12 0ZM12 2.25C17.4375 2.25 21.75 6.5625 21.75 12C21.75 12.9375 21.5625 13.6875 21.375 14.4375C19.125 13.125 17.25 12.5625 15.75 12.75C14.0625 12.75 12.9375 13.6875 12 14.625C10.875 15.75 9.9375 16.5 8.25 16.5C5.8125 16.5 4.125 16.125 3.5625 15.1875C3.375 14.8125 3 14.625 2.625 14.625C2.4375 13.875 2.25 12.9375 2.25 12C2.25 6.5625 6.5625 2.25 12 2.25Z" fill="#219EFF"/>
</svg>