<svg xmlns="http://www.w3.org/2000/svg" width="24" height="24" viewBox="0 0 24 24" fill="none">
  <path d="M18.5041 2C19.4312 2 20.3204 2.36832 20.9761 3.02394C21.6317 3.67955 22 4.56876 22 5.49594V18.5041C22 19.4312 21.6317 20.3204 20.9761 20.9761C20.3204 21.6317 19.4312 22 18.5041 22H5.49594C4.56876 22 3.67955 21.6317 3.02394 20.9761C2.36832 20.3204 2 19.4312 2 18.5041V5.49594C2 4.56876 2.36832 3.67955 3.02394 3.02394C3.67955 2.36832 4.56876 2 5.49594 2H18.5041ZM18.5041 3.78862H5.49594C4.55285 3.78862 3.78862 4.55285 3.78862 5.49594V18.5041C3.78862 19.4472 4.55285 20.2114 5.49594 20.2114H18.5041C19.4472 20.2114 20.2114 19.4472 20.2114 18.5041V5.49594C20.2114 4.55285 19.4472 3.78862 18.5041 3.78862ZM7.8374 12C8.1134 12 8.37809 12.1096 8.57325 12.3048C8.76841 12.5 8.87805 12.7647 8.87805 13.0407V16.1626C8.87805 16.4386 8.76841 16.7033 8.57325 16.8985C8.37809 17.0936 8.1134 17.2033 7.8374 17.2033C7.5614 17.2033 7.29671 17.0936 7.10155 16.8985C6.90639 16.7033 6.79675 16.4386 6.79675 16.1626V13.0407C6.79675 12.7647 6.90639 12.5 7.10155 12.3048C7.29671 12.1096 7.5614 12 7.8374 12ZM12 9.9187C12.276 9.9187 12.5407 10.0283 12.7359 10.2235C12.931 10.4187 13.0407 10.6834 13.0407 10.9594V16.1626C13.0407 16.4386 12.931 16.7033 12.7359 16.8985C12.5407 17.0936 12.276 17.2033 12 17.2033C11.724 17.2033 11.4593 17.0936 11.2641 16.8985C11.069 16.7033 10.9594 16.4386 10.9594 16.1626V10.9594C10.9594 10.6834 11.069 10.4187 11.2641 10.2235C11.4593 10.0283 11.724 9.9187 12 9.9187ZM16.1626 6.79675C16.4386 6.79675 16.7033 6.90639 16.8985 7.10155C17.0936 7.29671 17.2033 7.5614 17.2033 7.8374V16.1626C17.2033 16.4386 17.0936 16.7033 16.8985 16.8985C16.7033 17.0936 16.4386 17.2033 16.1626 17.2033C15.8866 17.2033 15.6219 17.0936 15.4268 16.8985C15.2316 16.7033 15.122 16.4386 15.122 16.1626V7.8374C15.122 7.5614 15.2316 7.29671 15.4268 7.10155C15.6219 6.90639 15.8866 6.79675 16.1626 6.79675Z" fill="white" stroke="white" stroke-width="0.3"/>
</svg>