<svg xmlns="http://www.w3.org/2000/svg" width="23" height="23" viewBox="0 0 23 23" fill="none">
  <path d="M10.126 1.38796C10.126 0.62184 9.51341 0 8.75706 0H1.37033C0.612582 0 0 0.620464 0 1.38796V8.86974C0 9.63586 0.612582 10.2563 1.37033 10.2563H8.7557C9.51209 10.2563 10.1246 9.63582 10.1246 8.86974L10.126 1.38796ZM22.8571 1.38796C22.8571 0.62184 22.2446 0 21.4868 0H14.0987C13.3437 0 12.7298 0.620464 12.7298 1.38796V8.86974C12.7298 9.63586 13.3437 10.2563 14.0987 10.2563H21.4868C22.2446 10.2563 22.8571 9.63582 22.8571 8.86974V1.38796ZM10.126 13.9874C10.126 13.2213 9.51341 12.6009 8.75706 12.6009H1.37033C0.612582 12.6009 0 13.2213 0 13.9874V21.4706C0 22.2395 0.612582 22.8571 1.37033 22.8571H8.7557C9.51209 22.8571 10.1246 22.2395 10.1246 21.4706L10.126 13.9874ZM22.8571 13.9874C22.8571 13.2213 22.2446 12.6009 21.4868 12.6009H14.0987C13.3437 12.6009 12.7298 13.2213 12.7298 13.9874V21.4706C12.7298 22.2395 13.3437 22.8571 14.0987 22.8571H21.4868C22.2446 22.8571 22.8571 22.2395 22.8571 21.4706V13.9874Z" fill="#999EA4"/>
</svg>