<svg xmlns="http://www.w3.org/2000/svg" width="13" height="14" viewBox="0 0 13 14" fill="none">
  <path d="M8.25859 6.24167C8.25859 7.35 7.35354 8.28333 6.22222 8.28333C5.09091 8.28333 4.18586 7.35 4.18586 6.24167C4.18586 5.13333 5.09091 4.2 6.22222 4.2C7.35354 4.2 8.25859 5.075 8.25859 6.24167ZM9.61616 11.4333L10.5212 12.95C10.6343 13.1833 10.6343 13.475 10.5212 13.65C10.4081 13.8833 10.1818 14 9.89899 14H2.54545C2.26263 14 2.03636 13.8833 1.92323 13.65C1.8101 13.4167 1.8101 13.125 1.92323 12.95L2.82828 11.4333C1.13131 10.325 0 8.4 0 6.24167C0 2.8 2.77172 0 6.22222 0C9.67273 0 12.4444 2.8 12.4444 6.24167C12.4444 8.4 11.3131 10.325 9.61616 11.4333ZM9.67273 6.24167C9.67273 4.31667 8.08889 2.8 6.22222 2.8C4.35556 2.8 2.77172 4.375 2.77172 6.24167C2.77172 8.10833 4.35556 9.68333 6.22222 9.68333C8.14546 9.68333 9.67273 8.10833 9.67273 6.24167Z" fill="#09090B"/>
</svg>