<svg xmlns="http://www.w3.org/2000/svg" width="163" height="20" viewBox="0 0 163 20" fill="none">
  <path d="M2.07589 19.6544H0V0.276316H8.5813C11.4883 0.276316 13.426 2.21405 13.426 4.84398V8.5813C13.426 11.2112 11.4883 13.149 8.5813 13.149H2.07589V19.6544ZM8.5813 2.07589H2.07589V11.3494H8.5813C10.1039 11.3494 11.3494 10.1039 11.3494 8.5813V4.84398C11.3494 3.32143 10.1039 2.07589 8.5813 2.07589ZM17.0244 15.3637V4.56767C17.0244 1.93773 18.9622 0 21.8691 0H26.7138C29.6208 0 31.5585 1.93773 31.5585 4.56767V15.3637C31.5585 17.9937 29.6208 19.9314 26.7138 19.9314H21.8691C18.9622 19.9314 17.0244 17.9937 17.0244 15.3637ZM29.4812 15.3637V4.56767C29.4812 3.04511 28.2357 1.79958 26.7131 1.79958H21.8684C20.3459 1.79958 19.1003 3.04511 19.1003 4.56767V15.3637C19.1003 16.8863 20.3459 18.1318 21.8684 18.1318H26.7131C28.2357 18.1318 29.4812 16.8863 29.4812 15.3637ZM36.5399 0.277021H38.6158V17.8555H48.9967V19.6551H36.5399V0.276316V0.277021ZM58.132 13.703V19.6544H56.0561V13.703L49.5508 1.10738V0.277021H51.6266L57.0247 11.4882H57.1628L62.5608 0.277021H64.6367V1.10738L58.1313 13.703H58.132ZM73.3576 2.0766V19.6551H71.2817V2.07589H65.1915V0.276316H79.4478V1.52185L78.8945 2.07519H73.3583L73.3576 2.0766ZM84.5688 19.6551H82.4929V0.276316H91.0742C93.9812 0.276316 95.9189 2.21405 95.9189 4.84398V7.47392C95.9189 11.3494 92.1816 11.9034 92.1816 11.9034L96.4723 18.824V19.6544H94.3964L90.1057 12.0416H84.5695V19.6544L84.5688 19.6551ZM91.0742 2.0766H84.5688V10.2427H91.0742C92.5968 10.2427 93.8423 8.99718 93.8423 7.47462V4.84469C93.8423 3.32213 92.5968 2.0766 91.0742 2.0766ZM100.071 15.3644V4.56837C100.071 1.93844 102.008 0.0007045 104.915 0.0007045H109.76C112.667 0.0007045 114.605 1.93844 114.605 4.56837V15.3644C114.605 17.9944 112.667 19.9321 109.76 19.9321H104.915C102.008 19.9321 100.071 17.9944 100.071 15.3644ZM112.527 15.3644V4.56837C112.527 3.04582 111.282 1.80028 109.759 1.80028H104.915C103.392 1.80028 102.147 3.04582 102.147 4.56837V15.3644C102.147 16.887 103.392 18.1325 104.915 18.1325H109.759C111.282 18.1325 112.527 16.887 112.527 15.3644ZM130.936 19.6551L121.525 3.73802H121.386L121.664 7.33647V19.6551H119.588V0.276316H121.802L131.214 16.1934H131.352L131.075 12.5949V0.276316H133.151V19.6537H130.936V19.6551ZM137.58 17.0251H139.656V19.6551H137.58V17.0251ZM145.47 14.6722L143.809 19.6551H141.733V18.8247L148.515 0.277725H150.868L157.651 18.8247V19.6551H155.575L153.914 14.6722H145.471H145.47ZM153.221 12.8726L149.76 2.7688H149.622L146.162 12.8726H153.221ZM162.909 19.6551H160.833V0.276316H162.909V19.6537V19.6551Z" fill="#09090B"/>
</svg>