<svg xmlns="http://www.w3.org/2000/svg" width="20" height="19" viewBox="0 0 20 19" fill="none">
  <path d="M18.8235 2.61905H1.17647C0.864451 2.61905 0.565212 2.48108 0.344581 2.2355C0.123949 1.98991 0 1.65683 0 1.30952C0 0.962217 0.123949 0.629134 0.344581 0.383551C0.565212 0.137968 0.864451 0 1.17647 0H18.8235C19.1355 0 19.4348 0.137968 19.6554 0.383551C19.8761 0.629134 20 0.962217 20 1.30952C20 1.65683 19.8761 1.98991 19.6554 2.2355C19.4348 2.48108 19.1355 2.61905 18.8235 2.61905Z" fill="#9CA3AF"/>
  <path d="M18.8235 10.4762H1.17647C0.864451 10.4762 0.565212 10.3382 0.344581 10.0926C0.123949 9.84706 0 9.51397 0 9.16667C0 8.81936 0.123949 8.48628 0.344581 8.24069C0.565212 7.99511 0.864451 7.85714 1.17647 7.85714H18.8235C19.1355 7.85714 19.4348 7.99511 19.6554 8.24069C19.8761 8.48628 20 8.81936 20 9.16667C20 9.51397 19.8761 9.84706 19.6554 10.0926C19.4348 10.3382 19.1355 10.4762 18.8235 10.4762Z" fill="#9CA3AF"/>
  <path d="M18.8235 18.3333H1.17647C0.864451 18.3333 0.565212 18.1954 0.344581 17.9498C0.123949 17.7042 0 17.3711 0 17.0238C0 16.6765 0.123949 16.3434 0.344581 16.0978C0.565212 15.8523 0.864451 15.7143 1.17647 15.7143H18.8235C19.1355 15.7143 19.4348 15.8523 19.6554 16.0978C19.8761 16.3434 20 16.6765 20 17.0238C20 17.3711 19.8761 17.7042 19.6554 17.9498C19.4348 18.1954 19.1355 18.3333 18.8235 18.3333Z" fill="#9CA3AF"/>
</svg>