<svg xmlns="http://www.w3.org/2000/svg" width="40" height="40" viewBox="0 0 40 40" fill="none">
  <path d="M15.0227 9.45877C15.0227 8.96897 14.6324 8.57141 14.1506 8.57141H9.44435C8.96158 8.57141 8.57129 8.96809 8.57129 9.45877V14.242C8.57129 14.7318 8.96158 15.1285 9.44435 15.1285H14.1497C14.6316 15.1285 15.0219 14.7318 15.0219 14.242V9.45877H15.0227ZM23.134 9.45877C23.134 8.96897 22.7437 8.57141 22.2609 8.57141H17.5538C17.0728 8.57141 16.6816 8.96809 16.6816 9.45877V14.242C16.6816 14.7318 17.0728 15.1285 17.5538 15.1285H22.2609C22.7437 15.1285 23.134 14.7318 23.134 14.242V9.45877ZM31.4284 9.45877C31.4284 8.96897 31.0381 8.57141 30.5563 8.57141H25.8501C25.3673 8.57141 24.977 8.96809 24.977 9.45877V14.242C24.977 14.7318 25.3673 15.1285 25.8501 15.1285H30.5563C31.0382 15.1285 31.4284 14.7318 31.4284 14.242V9.45877ZM15.0227 17.5139C15.0227 17.0241 14.6324 16.6274 14.1506 16.6274H9.44435C8.96158 16.6274 8.57129 17.0241 8.57129 17.5139V22.298C8.57129 22.7896 8.96158 23.1845 9.44435 23.1845H14.1497C14.6316 23.1845 15.0219 22.7896 15.0219 22.298V17.5139H15.0227ZM23.134 17.5139C23.134 17.0241 22.7437 16.6274 22.2609 16.6274H17.5538C17.0728 16.6274 16.6816 17.0241 16.6816 17.5139V22.298C16.6816 22.7896 17.0728 23.1845 17.5538 23.1845H22.2609C22.7437 23.1845 23.134 22.7896 23.134 22.298V17.5139ZM31.4284 17.5139C31.4284 17.0241 31.0381 16.6274 30.5563 16.6274H25.8501C25.3673 16.6274 24.977 17.0241 24.977 17.5139V22.298C24.977 22.7896 25.3673 23.1845 25.8501 23.1845H30.5563C31.0382 23.1845 31.4284 22.7896 31.4284 22.298V17.5139ZM15.0227 25.757C15.0227 25.269 14.6324 24.8706 14.1506 24.8706H9.44435C8.96158 24.8706 8.57129 25.269 8.57129 25.757V30.5421C8.57129 31.0319 8.96158 31.4286 9.44435 31.4286H14.1497C14.6316 31.4286 15.0219 31.0319 15.0219 30.5421V25.757H15.0227ZM23.134 25.757C23.134 25.269 22.7437 24.8706 22.2609 24.8706H17.5538C17.0728 24.8706 16.6816 25.269 16.6816 25.757V30.5421C16.6816 31.0319 17.0728 31.4286 17.5538 31.4286H22.2609C22.7437 31.4286 23.134 31.0319 23.134 30.5421V25.757ZM31.4284 25.757C31.4284 25.269 31.0381 24.8706 30.5563 24.8706H25.8501C25.3673 24.8706 24.977 25.269 24.977 25.757V30.5421C24.977 31.0319 25.3673 31.4286 25.8501 31.4286H30.5563C31.0382 31.4286 31.4284 31.0319 31.4284 30.5421V25.757Z" fill="#999EA4"/>
</svg>