<svg xmlns="http://www.w3.org/2000/svg" width="15" height="14" viewBox="0 0 15 14" fill="none">
  <path d="M5.46286 1.45731C6.54259 -0.485768 8.29323 -0.485768 9.37296 1.45731L14.3883 10.4826C15.4681 12.4248 14.5268 14 12.2866 14H2.54925C0.309025 14 -0.632233 12.4256 0.447493 10.4826L5.46369 1.45731H5.46286ZM8.22812 4.36294C8.22812 4.14995 8.14263 3.94568 7.99045 3.79507C7.83828 3.64446 7.63188 3.55985 7.41667 3.55985C7.20147 3.55985 6.99507 3.64446 6.8429 3.79507C6.69072 3.94568 6.60523 4.14995 6.60523 4.36294V8.37879C6.60523 8.59189 6.69077 8.79626 6.84302 8.94695C6.99527 9.09763 7.20177 9.18229 7.41709 9.18229C7.6324 9.18229 7.8389 9.09763 7.99116 8.94695C8.14341 8.79626 8.22894 8.59189 8.22894 8.37879V4.36294H8.22812ZM8.22812 10.7876H6.60523V12.3946H8.22894V10.7876H8.22812Z" fill="#09090B"/>
</svg>