<svg xmlns="http://www.w3.org/2000/svg" width="27" height="29" viewBox="0 0 27 29" fill="none">
  <path d="M16.6271 10.789C16.4946 11.3305 16.4946 11.7336 16.3621 12.1367C13.1707 14.4289 11.0432 18.207 11.0432 22.5226C11.0432 24.2773 11.4406 25.8937 11.9745 27.3797H1.19628C0.529947 27.3797 0 26.7039 0 26.032C0 26.032 2.38419e-07 21.0406 3.19137 19.1515C5.18646 17.9383 4.38765 18.8828 6.91658 17.8039C9.44552 16.5906 9.30914 16.725 9.30914 16.725V14.1601C9.30914 14.1601 8.24535 13.35 7.98037 10.9234C7.31404 11.0578 7.18156 10.1132 7.04907 9.57577C7.04907 9.03434 6.65161 7.14922 7.44653 7.41796C7.31404 6.07032 7.18156 4.99142 7.18156 4.31562C7.31404 2.29218 9.30914 0.134369 12.2355 0C15.6919 0.134369 17.0245 2.29218 17.2895 4.31562C17.2895 4.85705 17.157 5.93595 17.0245 7.14922C17.8234 7.01485 17.422 8.76956 17.422 9.30703C17.422 10.1132 17.2895 10.9234 16.6271 10.789Z" fill="url(#paint0_linear_19029_424849)"/>
  <path d="M20 15C18.1435 15 16.363 15.7375 15.0503 17.0503C13.7375 18.363 13 20.1435 13 22C13 23.8565 13.7375 25.637 15.0503 26.9497C16.363 28.2625 18.1435 29 20 29C21.8565 29 23.637 28.2625 24.9497 26.9497C26.2625 25.637 27 23.8565 27 22C27 20.1435 26.2625 18.363 24.9497 17.0503C23.637 15.7375 21.8565 15 20 15ZM22.1538 23.0769H19.4615C19.3187 23.0769 19.1818 23.0202 19.0808 22.9192C18.9798 22.8182 18.9231 22.6813 18.9231 22.5385V19.3077C18.9231 19.1649 18.9798 19.0279 19.0808 18.9269C19.1818 18.826 19.3187 18.7692 19.4615 18.7692C19.6043 18.7692 19.7413 18.826 19.8423 18.9269C19.9433 19.0279 20 19.1649 20 19.3077V22H22.1538C22.2967 22 22.4336 22.0567 22.5346 22.1577C22.6356 22.2587 22.6923 22.3957 22.6923 22.5385C22.6923 22.6813 22.6356 22.8182 22.5346 22.9192C22.4336 23.0202 22.2967 23.0769 22.1538 23.0769Z" fill="url(#paint1_linear_19029_424849)"/>
  <defs>
    <linearGradient id="paint0_linear_19029_424849" x1="0" y1="0" x2="0" y2="29" gradientUnits="userSpaceOnUse">
      <stop offset="0.000901442" stop-color="#2491FF"/>
      <stop offset="1" stop-color="#2FCCF3"/>
    </linearGradient>
    <linearGradient id="paint1_linear_19029_424849" x1="0" y1="0" x2="0" y2="29" gradientUnits="userSpaceOnUse">
      <stop offset="0.000901442" stop-color="#2491FF"/>
      <stop offset="1" stop-color="#2FCCF3"/>
    </linearGradient>
  </defs>
</svg>