<svg xmlns="http://www.w3.org/2000/svg" width="13" height="15" viewBox="0 0 13 15" fill="none">
  <path d="M3.90625 3.75V0.0975001C3.52969 0.201 3.18047 0.3855 2.89609 0.65925L0.686719 2.78025C0.402344 3.05325 0.210156 3.3885 0.101563 3.75H3.90625Z" fill="#09090B"/>
  <path d="M10.9891 0H5.46875V3.75C5.46875 4.57725 4.76797 5.25 3.90625 5.25H0V13.5C0 14.3273 0.677344 15 1.51094 15H10.9898C11.8227 15 12.5 14.3273 12.5 13.5V1.5C12.5 0.67275 11.8227 0 10.9891 0ZM7.03125 9.75C7.03125 10.5772 6.33047 11.25 5.46875 11.25H3.90625C3.04453 11.25 2.34375 10.5772 2.34375 9.75V8.25C2.34375 7.42275 3.04453 6.75 3.90625 6.75H5.46875C6.33047 6.75 7.03125 7.42275 7.03125 8.25V9.75ZM10.1562 10.0365C10.1562 10.5938 9.54531 10.9567 9.02578 10.707L7.8125 9.75V8.25L9.02578 7.293C9.54531 7.04325 10.1562 7.40625 10.1562 7.9635V10.0365Z" fill="#09090B"/>
</svg>