<svg xmlns="http://www.w3.org/2000/svg" width="22" height="21" viewBox="0 0 22 21" fill="none">
  <path d="M20.8389 0.0976562C21.1181 0.0997285 21.3319 0.313601 21.332 0.583008V18.2236C21.3319 18.4433 21.1868 18.6199 20.9707 18.6904L14.2871 20.8965L7.1748 18.458L7.1416 18.4463L7.1084 18.459L0.758789 20.8701L0.589844 20.9014C0.311317 20.8986 0.0978287 20.686 0.0976562 20.417V2.77637C0.0977717 2.58432 0.208579 2.42497 0.380859 2.34082L0.458984 2.30957L7.1416 0.102539L14.2549 2.54199L14.2881 2.55371L14.3213 2.54102L20.6689 0.128906L20.8389 0.0976562ZM14.3848 4.72559L14.3184 4.70312L7.1748 2.24121L7.0459 2.19629V16.2744L7.11133 16.2969L14.2549 18.7588L14.3848 18.8037V4.72559Z" fill="#09090B" stroke="#E5E7EB" stroke-width="0.195312"/>
</svg>