<svg xmlns="http://www.w3.org/2000/svg" width="21" height="24" viewBox="0 0 21 24" fill="none">
  <path d="M6.28953 16.0968C5.56539 15.3408 5.15777 14.3112 5.15777 13.2336V8.9592C5.15777 8.1552 5.38094 7.4064 5.76806 6.7752C5.59044 6.7296 5.41054 6.7056 5.22837 6.7056H2.3432C1.05433 6.7056 0 7.8312 0 9.2016V13.1304C0 14.0616 0.48959 14.916 1.26838 15.3456V23.0232H3.15843L3.85524 18.1632L4.55205 23.0232H6.2918V16.0968H6.28953ZM13.2144 15.6528C14.041 15.2016 14.608 14.2824 14.608 13.2336V8.9592C14.608 7.4664 13.4603 6.2424 12.0576 6.2424H8.91509C7.51236 6.2424 6.36467 7.464 6.36467 8.9592V13.2336C6.36467 14.28 6.92713 15.192 7.74463 15.6456V24H9.80547L10.5638 18.7128L11.3221 24H13.2144V15.6528ZM10.5592 0C12.0439 0 13.2463 1.2816 13.2463 2.8632C13.2463 4.4424 12.0439 5.7264 10.5592 5.7264C9.0745 5.7264 7.87215 4.4448 7.87215 2.8632C7.87215 1.2768 9.0745 0 10.5592 0ZM14.7082 16.0968V23.028H16.448L17.1448 18.168L17.8416 23.028H19.7339V15.3528C20.4854 14.9352 21 14.0976 21 13.1376V9.2064C21 7.8336 19.9434 6.7104 18.6545 6.7104H15.7739C15.5872 6.7104 15.405 6.7344 15.2342 6.78C15.635 7.4304 15.8468 8.1888 15.8445 8.964V13.2384C15.8445 14.328 15.4232 15.3552 14.7082 16.0968ZM17.1516 0.9696C15.7853 0.9696 14.6809 2.1456 14.6809 3.5976C14.6809 5.0496 15.7853 6.228 17.1516 6.228C18.5133 6.228 19.6178 5.052 19.6178 3.5976C19.6178 2.1432 18.5133 0.9696 17.1516 0.9696ZM3.85068 0.9696C5.21243 0.9696 6.32141 2.1456 6.32141 3.5976C6.32141 5.0496 5.21698 6.228 3.85068 6.228C2.48666 6.228 1.38452 5.052 1.38452 3.5976C1.38224 2.1432 2.48666 0.9696 3.85068 0.9696Z" fill="url(#paint0_linear_19029_424794)"/>
  <defs>
    <linearGradient id="paint0_linear_19029_424794" x1="0" y1="0" x2="0" y2="24" gradientUnits="userSpaceOnUse">
      <stop offset="0.000901442" stop-color="#2491FF"/>
      <stop offset="1" stop-color="#2FCCF3"/>
    </linearGradient>
  </defs>
</svg>