<svg xmlns="http://www.w3.org/2000/svg" width="40" height="40" viewBox="0 0 40 40" fill="none">
  <path d="M0 8C0 3.58172 3.58172 0 8 0H32C36.4183 0 40 3.58172 40 8V32C40 36.4183 36.4183 40 32 40H8C3.58172 40 0 36.4183 0 32V8Z" fill="#F4F4F5"/>
  <path d="M11.4514 9.45877C11.4514 8.96897 11.0612 8.57141 10.5793 8.57141H5.87306C5.39029 8.57141 5 8.96809 5 9.45877V14.242C5 14.7318 5.39029 15.1285 5.87306 15.1285H10.5784C11.0603 15.1285 11.4506 14.7318 11.4506 14.242L11.4514 9.45877ZM19.5627 9.45877C19.5627 8.96897 19.1724 8.57141 18.6896 8.57141H13.9825C13.5015 8.57141 13.1103 8.96809 13.1103 9.45877V14.242C13.1103 14.7318 13.5015 15.1285 13.9825 15.1285H18.6896C19.1724 15.1285 19.5627 14.7318 19.5627 14.242V9.45877ZM11.4514 17.5139C11.4514 17.0241 11.0612 16.6274 10.5793 16.6274H5.87306C5.39029 16.6274 5 17.0241 5 17.5139V22.298C5 22.7896 5.39029 23.1845 5.87306 23.1845H10.5784C11.0603 23.1845 11.4506 22.7896 11.4506 22.298L11.4514 17.5139ZM19.5627 17.5139C19.5627 17.0241 19.1724 16.6274 18.6896 16.6274H13.9825C13.5015 16.6274 13.1103 17.0241 13.1103 17.5139V22.298C13.1103 22.7896 13.5015 23.1845 13.9825 23.1845H18.6896C19.1724 23.1845 19.5627 22.7896 19.5627 22.298V17.5139ZM11.4514 25.757C11.4514 25.269 11.0612 24.8706 10.5793 24.8706H5.87306C5.39029 24.8706 5 25.269 5 25.757V30.5421C5 31.0319 5.39029 31.4286 5.87306 31.4286H10.5784C11.0603 31.4286 11.4506 31.0319 11.4506 30.5421L11.4514 25.757ZM19.5627 25.757C19.5627 25.269 19.1724 24.8706 18.6896 24.8706H13.9825C13.5015 24.8706 13.1103 25.269 13.1103 25.757V30.5421C13.1103 31.0319 13.5015 31.4286 13.9825 31.4286H18.6896C19.1724 31.4286 19.5627 31.0319 19.5627 30.5421V25.757Z" fill="#1D232B"/>
  <path d="M27.4514 9.45877C27.4514 8.96897 27.0612 8.57141 26.5793 8.57141H21.8731C21.3903 8.57141 21 8.96809 21 9.45877V14.242C21 14.7318 21.3903 15.1285 21.8731 15.1285H26.5784C27.0603 15.1285 27.4506 14.7318 27.4506 14.242L27.4514 9.45877ZM35.5627 9.45877C35.5627 8.96897 35.1724 8.57141 34.6896 8.57141H29.9825C29.5015 8.57141 29.1103 8.96809 29.1103 9.45877V14.242C29.1103 14.7318 29.5015 15.1285 29.9825 15.1285H34.6896C35.1724 15.1285 35.5627 14.7318 35.5627 14.242V9.45877ZM27.4514 17.5139C27.4514 17.0241 27.0612 16.6274 26.5793 16.6274H21.8731C21.3903 16.6274 21 17.0241 21 17.5139V22.298C21 22.7896 21.3903 23.1845 21.8731 23.1845H26.5784C27.0603 23.1845 27.4506 22.7896 27.4506 22.298L27.4514 17.5139ZM35.5627 17.5139C35.5627 17.0241 35.1724 16.6274 34.6896 16.6274H29.9825C29.5015 16.6274 29.1103 17.0241 29.1103 17.5139V22.298C29.1103 22.7896 29.5015 23.1845 29.9825 23.1845H34.6896C35.1724 23.1845 35.5627 22.7896 35.5627 22.298V17.5139ZM27.4514 25.757C27.4514 25.269 27.0612 24.8706 26.5793 24.8706H21.8731C21.3903 24.8706 21 25.269 21 25.757V30.5421C21 31.0319 21.3903 31.4286 21.8731 31.4286H26.5784C27.0603 31.4286 27.4506 31.0319 27.4506 30.5421L27.4514 25.757ZM35.5627 25.757C35.5627 25.269 35.1724 24.8706 34.6896 24.8706H29.9825C29.5015 24.8706 29.1103 25.269 29.1103 25.757V30.5421C29.1103 31.0319 29.5015 31.4286 29.9825 31.4286H34.6896C35.1724 31.4286 35.5627 31.0319 35.5627 30.5421V25.757Z" fill="#1D232B"/>
</svg>