<svg xmlns="http://www.w3.org/2000/svg" width="24" height="24" viewBox="0 0 24 24" fill="none">
  <path d="M12 0C8.8174 0 5.76516 1.26428 3.51472 3.51472C1.26428 5.76516 0 8.8174 0 12C0 15.1826 1.26428 18.2348 3.51472 20.4853C5.76516 22.7357 8.8174 24 12 24C15.1826 24 18.2348 22.7357 20.4853 20.4853C22.7357 18.2348 24 15.1826 24 12C24 8.8174 22.7357 5.76516 20.4853 3.51472C18.2348 1.26428 15.1826 0 12 0ZM15.6923 13.8462H11.0769C10.8321 13.8462 10.5973 13.7489 10.4242 13.5758C10.2511 13.4027 10.1538 13.1679 10.1538 12.9231V7.38462C10.1538 7.1398 10.2511 6.90501 10.4242 6.7319C10.5973 6.55879 10.8321 6.46154 11.0769 6.46154C11.3217 6.46154 11.5565 6.55879 11.7296 6.7319C11.9027 6.90501 12 7.1398 12 7.38462V12H15.6923C15.9371 12 16.1719 12.0973 16.345 12.2704C16.5181 12.4435 16.6154 12.6783 16.6154 12.9231C16.6154 13.1679 16.5181 13.4027 16.345 13.5758C16.1719 13.7489 15.9371 13.8462 15.6923 13.8462Z" fill="url(#paint0_linear_19029_424806)"/>
  <defs>
    <linearGradient id="paint0_linear_19029_424806" x1="0" y1="0" x2="0" y2="24" gradientUnits="userSpaceOnUse">
      <stop offset="0.000901442" stop-color="#2491FF"/>
      <stop offset="1" stop-color="#2FCCF3"/>
    </linearGradient>
  </defs>
</svg>